PathFileType	4	(X/Y/Z)	/Users/itak/Documents/Research/Walk-IL/dataset/trc/00302_00010.trc
DataRate	CameraRate	NumFrames	NumMarkers	Units	OrigDataRate	OrigDataStartFrame	OrigNumFrames
100.000000	100.000000	4	55	mm	100.000000	296	395
Frame#	Time	RPSI			LPSI			L3			STRN			T10			C7			CLAV			RBAK			LBAK			LSHO			LUPA			LAEL			LAOL			LWPS			LFRA			LIFD			LHPS			LHTS			RSHO			RUPA			RAEL			RAOL			RWTS			RWPS			RFRA			RIFD			RHPS			RBHD			LFHD			RFHD			LBHD			LHIP			RHIP			RASI			LASI			LKNE			LTHI			LANK			LTIP			LTOE			LMT1			LMT5			LHEE			RKNE			RTHI			RTIP			RTOE			RMT1			RMT5			RHEE			LWTS			RHTS			RANK			*53			*54			
		X1	Y1	Z1	X2	Y2	Z2	X3	Y3	Z3	X4	Y4	Z4	X5	Y5	Z5	X6	Y6	Z6	X7	Y7	Z7	X8	Y8	Z8	X9	Y9	Z9	X10	Y10	Z10	X11	Y11	Z11	X12	Y12	Z12	X13	Y13	Z13	X14	Y14	Z14	X15	Y15	Z15	X16	Y16	Z16	X17	Y17	Z17	X18	Y18	Z18	X19	Y19	Z19	X20	Y20	Z20	X21	Y21	Z21	X22	Y22	Z22	X23	Y23	Z23	X24	Y24	Z24	X25	Y25	Z25	X26	Y26	Z26	X27	Y27	Z27	X28	Y28	Z28	X29	Y29	Z29	X30	Y30	Z30	X31	Y31	Z31	X32	Y32	Z32	X33	Y33	Z33	X34	Y34	Z34	X35	Y35	Z35	X36	Y36	Z36	X37	Y37	Z37	X38	Y38	Z38	X39	Y39	Z39	X40	Y40	Z40	X41	Y41	Z41	X42	Y42	Z42	X43	Y43	Z43	X44	Y44	Z44	X45	Y45	Z45	X46	Y46	Z46	X47	Y47	Z47	X48	Y48	Z48	X49	Y49	Z49	X50	Y50	Z50	X51	Y51	Z51	X52	Y52	Z52	X53	Y53	Z53	X54	Y54	Z54	X55	Y55	Z55	

297	2.96	383.1737976074219	1010.237915039062	-366.56787109375	207.5735931396484	1001.794738769531	-351.4624938964844	295.4188232421875	1073.388427734375	-376.1313781738281	265.2043151855469	1247.22412109375	-623.0899047851562	301.0602722167969	1185.530883789062	-359.5833129882812	279.9205932617188	1431.169189453125	-400.6590270996094	267.9798583984375	1347.835571289062	-559.9368286132812	362.7254943847656	1293.927368164062	-359.9915161132812	177.8459930419922	1392.84619140625	-373.7914733886719	115.2836303710938	1400.115478515625	-459.2100830078125	41.59738922119141	1284.087280273438	-428.9422607421875	14.10708427429199	1082.87158203125	-451.1526794433594	77.65892028808594	1062.1572265625	-395.1776428222656	-13.34164237976074	856.0479736328125	-523.6414184570312	-1.815565228462219	981.37841796875	-476.3931274414062	36.31892776489258	684.2421264648438	-577.4968872070312	-15.40367794036865	768.9970092773438	-536.2410888671875	25.29715347290039	773.2150268554688	-588.2880859375	429.4689025878906	1407.19873046875	-488.4254455566406	494.0906372070312	1346.59619140625	-490.7222595214844	542.3460083007812	1080.206787109375	-493.7898254394531	456.3051452636719	1072.70703125	-456.1631469726562	492.9704895019531	854.0787353515625	-587.9735717773438	568.9284057617188	853.460205078125	-549.8291625976562	554.7738037109375	1014.786437988281	-518.7180786132812	499.658935546875	667.7664794921875	-588.57080078125	567.81787109375	740.8475341796875	-569.5235595703125	349.039306640625	1566.712524414062	-404.5536193847656	214.8476104736328	1653.156005859375	-544.81103515625	307.1648254394531	1650.501831054688	-554.0638427734375	203.5193176269531	1560.907470703125	-394.4605712890625	106.9561386108398	951.868896484375	-411.1090698242188	475.9006652832031	955.8594970703125	-475.1602478027344	393.6234741210938	953.0306396484375	-589.5692138671875	142.5386657714844	955.8243408203125	-553.2260131835938	123.2921981811523	484.8470153808594	-503.9866333007812	103.5267562866211	627.0208740234375	-484.0563354492188	147.8420104980469	46.66909408569336	-416.25537109375	126.7573852539062	259.6482238769531	-455.6868591308594	190.5341186523438	36.79310989379883	-627.0377807617188	236.2109375	27.61025428771973	-558.8795776367188	126.7308044433594	41.68111801147461	-537.4617309570312	210.8301086425781	38.9209098815918	-373.7666015625	427.6343383789062	480.824951171875	-482.4202880859375	464.0930786132812	742.9537963867188	-522.6415405273438	412.976318359375	361.5166625976562	-489.5812072753906	320.0170593261719	39.94703674316406	-622.312255859375	288.8082885742188	38.15609359741211	-559.15673828125	403.8294067382812	31.62180519104004	-538.5307006835938	354.3679504394531	38.34916687011719	-375.8935241699219	51.60133361816406	867.5279541015625	-556.1359252929688	512.8717651367188	738.260009765625	-614.130126953125	397.6996154785156	40.92771911621094	-433.3614196777344	nan	nan	nan	nan	nan	nan	
298	2.97	382.5666809082031	1010.412414550781	-367.3971252441406	206.9277954101562	1002.104309082031	-352.2308959960938	294.733642578125	1073.600463867188	-376.9420166015625	264.213134765625	1247.096313476562	-624.1116943359375	300.2868041992188	1185.868408203125	-360.4203796386719	279.1308288574219	1431.409301757812	-402.0484924316406	267.0392456054688	1347.748779296875	-561.0469360351562	361.9615783691406	1294.260620117188	-361.1796264648438	177.0792846679688	1393.16064453125	-374.9421081542969	114.4559555053711	1400.251953125	-460.2933959960938	41.01730346679688	1284.053344726562	-429.845458984375	14.11376190185547	1082.832641601562	-452.16259765625	78.1826171875	1062.053100585938	-396.7957458496094	-14.03256130218506	856.7744140625	-526.0982666015625	-1.771094799041748	981.5535278320312	-477.8002319335938	35.17416381835938	685.80908203125	-583.092529296875	-15.86650276184082	769.8660278320312	-539.6873779296875	23.68360328674316	774.9049072265625	-592.5044555664062	428.59375	1407.197021484375	-489.9604187011719	493.2203369140625	1346.5673828125	-492.192626953125	541.5289916992188	1080.191284179688	-492.9836730957031	455.2868957519531	1073.058837890625	-455.7552795410156	494.6306457519531	851.13232421875	-581.1320190429688	570.580078125	853.0506591796875	-543.049560546875	554.5578002929688	1014.819641113281	-516.5875854492188	503.9870910644531	664.5604248046875	-573.7802124023438	571.2114868164062	739.7593383789062	-558.3778076171875	348.0619506835938	1566.773071289062	-405.9486389160156	213.7244720458984	1653.19873046875	-546.0730590820312	306.0444641113281	1650.687255859375	-555.3632202148438	202.5672454833984	1560.784545898438	-395.8116455078125	106.1945571899414	952.101318359375	-411.6718139648438	475.0995788574219	955.914306640625	-476.0188903808594	392.866455078125	953.0687866210938	-590.4060668945312	141.7572784423828	955.8916625976562	-553.8145141601562	123.2811584472656	484.8269348144531	-503.038818359375	103.2492828369141	627.1363525390625	-483.8268127441406	147.8113861083984	46.64315414428711	-416.2265014648438	126.8011169433594	259.7098693847656	-455.0417175292969	190.5390167236328	36.80182266235352	-627.0255737304688	236.2174987792969	27.60843849182129	-558.8717041015625	126.7377853393555	41.68259048461914	-537.4586791992188	210.7975769042969	38.85603713989258	-373.7305908203125	427.07080078125	480.8167114257812	-483.1281127929688	462.7661743164062	742.6889038085938	-524.0494384765625	412.5347595214844	361.5354614257812	-490.0855407714844	319.9789733886719	39.92808532714844	-622.333251953125	288.7366333007812	38.09898376464844	-559.1661376953125	403.7577819824219	31.62967491149902	-538.5416870117188	354.3119812011719	38.41781234741211	-375.9070739746094	50.38183975219727	868.822509765625	-559.5867919921875	516.020751953125	734.46044921875	-602.4395141601562	397.636474609375	40.99592590332031	-433.3700256347656	nan	nan	nan	nan	nan	nan	
299	2.98	381.9873046875	1010.59326171875	-368.2178039550781	206.3459014892578	1002.412536621094	-352.9625244140625	294.0623168945312	1073.812133789062	-377.7675476074219	263.2706298828125	1246.994140625	-625.0836181640625	299.5390930175781	1186.199829101562	-361.251708984375	278.3736877441406	1431.644409179688	-403.3849182128906	266.1589050292969	1347.711547851562	-562.1265258789062	361.2140808105469	1294.580810546875	-362.33642578125	176.3362731933594	1393.489624023438	-376.0589904785156	113.677131652832	1400.431030273438	-461.3421020507812	40.46434020996094	1284.077758789062	-430.7749938964844	14.16810417175293	1082.821411132812	-453.1845703125	78.72627258300781	1062.021484375	-398.3302612304688	-14.5413122177124	857.4967651367188	-528.4478149414062	-1.612348318099976	981.7522583007812	-479.1903991699219	34.23865509033203	687.397705078125	-588.4402465820312	-16.16271781921387	770.73828125	-543.0042724609375	22.27533340454102	776.5830688476562	-596.5437622070312	427.750244140625	1407.221801757812	-491.42578125	492.3922119140625	1346.585571289062	-493.5774841308594	540.7721557617188	1080.27001953125	-491.9768371582031	454.2598876953125	1073.472290039062	-455.2562866210938	496.3030395507812	848.6490478515625	-574.4718017578125	572.1455688476562	852.9739379882812	-536.422607421875	554.4074096679688	1014.963684082031	-514.3218994140625	508.2076416015625	662.0186157226562	-559.4363403320312	574.5087890625	739.2149658203125	-547.6133422851562	347.1373596191406	1566.868286132812	-407.30908203125	212.6326446533203	1653.231079101562	-547.310302734375	304.9722595214844	1650.877197265625	-556.658203125	201.6536865234375	1560.7060546875	-397.1112365722656	105.4495620727539	952.331787109375	-412.2109680175781	474.3405151367188	955.9500122070312	-476.8433837890625	392.1411743164062	953.111083984375	-591.241455078125	140.9673309326172	955.9616088867188	-554.389892578125	123.2916717529297	484.8002319335938	-502.0459899902344	103.0092544555664	627.235595703125	-483.55615234375	147.7784729003906	46.61798095703125	-416.1961975097656	126.8507385253906	259.7787170410156	-454.362548828125	190.5406646728516	36.81441497802734	-627.0105590820312	236.223388671875	27.61285400390625	-558.8646850585938	126.7391510009766	41.68192672729492	-537.4535522460938	210.7606964111328	38.79361724853516	-373.696533203125	426.5408325195312	480.8187866210938	-483.8746032714844	461.5455932617188	742.3988037109375	-525.4334106445312	412.081298828125	361.5286254882812	-490.6352844238281	319.9400634765625	39.90812683105469	-622.3585815429688	288.6542663574219	38.03615951538086	-559.1753540039062	403.6863098144531	31.63718795776367	-538.5540771484375	354.2624816894531	38.48397064208984	-375.9207153320312	49.29756927490234	870.1549072265625	-562.8980712890625	519.1328125	731.3096313476562	-591.0843505859375	397.5722961425781	41.05803680419922	-433.3789367675781	nan	nan	nan	nan	nan	nan	
300	2.99	381.4292297363281	1010.7783203125	-369.0307922363281	205.8210906982422	1002.719665527344	-353.6568603515625	293.3943176269531	1074.02001953125	-378.6121520996094	262.3782653808594	1246.913696289062	-626.012451171875	298.8187255859375	1186.5224609375	-362.0816955566406	277.6448974609375	1431.874145507812	-404.6720581054688	265.3377685546875	1347.717529296875	-563.1809692382812	360.4718933105469	1294.887084960938	-363.4652099609375	175.6077880859375	1393.8271484375	-377.1486206054688	112.9235458374023	1400.641357421875	-462.3692321777344	39.92536163330078	1284.146484375	-431.7341003417969	14.22878932952881	1082.831665039062	-454.2284240722656	79.24771118164062	1062.047241210938	-399.7811279296875	-14.85527229309082	858.1952514648438	-530.70263671875	-1.388213038444519	981.965576171875	-480.5820922851562	33.53618621826172	688.98681640625	-593.5421752929688	-16.28128242492676	771.5955810546875	-546.2061157226562	21.1025505065918	778.2294311523438	-600.402587890625	426.9389343261719	1407.272827148438	-492.8210144042969	491.6095886230469	1346.658569335938	-494.8655700683594	540.0945434570312	1080.460083007812	-490.7572937011719	453.2489929199219	1073.953369140625	-454.6454467773438	497.9771423339844	846.6328125	-568.0452880859375	573.6209716796875	853.2037963867188	-529.984375	554.3311157226562	1015.220825195312	-511.9142456054688	512.2285766601562	660.109130859375	-545.7213134765625	577.6472778320312	739.150146484375	-537.32373046875	346.2667236328125	1566.99365234375	-408.634521484375	211.5731353759766	1653.256103515625	-548.51953125	303.9466857910156	1651.0693359375	-557.94287109375	200.7879180908203	1560.675903320312	-398.35986328125	104.723274230957	952.5651245117188	-412.7217712402344	473.6387023925781	955.96826171875	-477.6122741699219	391.4187927246094	953.1333618164062	-592.0626831054688	140.1642761230469	956.0280151367188	-554.9522094726562	123.28369140625	484.7746276855469	-501.0036926269531	102.8044815063477	627.3207397460938	-483.2315673828125	147.7436218261719	46.59263229370117	-416.1632385253906	126.8971176147461	259.8578796386719	-453.64013671875	190.5390625	36.831787109375	-626.9913940429688	236.2277069091797	27.62190437316895	-558.8576049804688	126.7335586547852	41.67864990234375	-537.4452514648438	210.7193756103516	38.73019790649414	-373.6629028320312	426.0501098632812	480.8312072753906	-484.6453857421875	460.4375610351562	742.1021118164062	-526.792724609375	411.6201171875	361.5007019042969	-491.2218322753906	319.9016418457031	39.88842010498047	-622.387451171875	288.5653076171875	37.97108840942383	-559.1844482421875	403.6195373535156	31.64822387695312	-538.5661010742188	354.2173156738281	38.54537582397461	-375.9324951171875	48.36624908447266	871.4969482421875	-566.0537719726562	522.149658203125	728.7879638671875	-580.1978759765625	397.5071105957031	41.11176300048828	-433.38818359375	nan	nan	nan	nan	nan	nan	
